<?xml version="1.0" encoding="utf-8"?>
<!-- Generator: Adobe Illustrator 26.4.1, SVG Export Plug-In . SVG Version: 6.00 Build 0)  -->
<svg version="1.1" id="Capa_1" xmlns="http://www.w3.org/2000/svg" xmlns:xlink="http://www.w3.org/1999/xlink" x="0px" y="0px"
	 viewBox="0 0 308.4 194.5" style="enable-background:new 0 0 308.4 194.5;" xml:space="preserve">
<style type="text/css">
	.st0{clip-path:url(#SVGID_00000024000716360076898640000000224185580277389986_);}
	.st1{fill:#FFFFFF;}
</style>
<g>
	<g>
		<defs>
			<rect id="SVGID_1_" y="8" width="308.4" height="176.6"/>
		</defs>
		<clipPath id="SVGID_00000081627972833465582950000014364149737802579639_">
			<use xlink:href="#SVGID_1_"  style="overflow:visible;"/>
		</clipPath>
		<g style="clip-path:url(#SVGID_00000081627972833465582950000014364149737802579639_);">
			<path class="st1" d="M1.1,16.3l99,165.6c1,1.7,2.7,2.7,4.7,2.7c1.9,0,3.7-1,4.7-2.7l44.8-74.9l44.8,74.9c1,1.7,2.8,2.7,4.7,2.7
				c1.9,0,3.7-1,4.7-2.7l99-165.6c1-1.7,1-3.8,0.1-5.5S304.7,8,302.7,8h-50.1c-1.9,0-3.7,1-4.7,2.7l-39.2,66.9
				c-1.5,2.6-0.7,5.9,1.9,7.5c2.6,1.5,5.9,0.7,7.5-1.9l37.7-64.2h37.3l-89.3,149.5l-43.1-72.2l47.8-80c1-1.7,1-3.8,0.1-5.5
				S205.7,8,203.7,8h-50.1c-1.9,0-3.7,1-4.7,2.7l-39.2,66.9c-1.5,2.6-0.7,5.9,1.9,7.5c2.6,1.5,5.9,0.7,7.5-1.9l37.7-64.2h37.3
				l-44.5,74.5c0,0,0,0,0,0.1l-44.8,74.9L15.4,18.9h80.2l-11,20.2c-1.4,2.6-0.5,5.9,2.2,7.4c2.6,1.4,5.9,0.5,7.4-2.2L109.5,16
				c0.9-1.7,0.9-3.7-0.1-5.4c-1-1.7-2.8-2.7-4.7-2.7H5.8C3.8,8,2,9,1,10.8C0.1,12.5,0.1,14.6,1.1,16.3"/>
		</g>
	</g>
</g>
</svg>
